<svg xmlns="http://www.w3.org/2000/svg" width="1600" height="900" viewBox="0 0 1600 900">
<defs>
  <linearGradient id="bg" x1="0" y1="0" x2="1" y2="1"><stop stop-color="#050b12"/><stop offset="1" stop-color="#0c1823"/></linearGradient>
  <linearGradient id="orange" x1="0" x2="1"><stop stop-color="#ff5b35"/><stop offset="1" stop-color="#ff9d2e"/></linearGradient>
  <filter id="glow"><feGaussianBlur stdDeviation="5" result="b"/><feMerge><feMergeNode in="b"/><feMergeNode in="SourceGraphic"/></feMerge></filter>
  <style>
    .t{font-family:Arial,sans-serif;fill:#eaf6ff}.s{font-family:Arial,sans-serif;fill:#7ea2bb}.o{stroke:#ff7138;fill:none;stroke-width:3}.c{stroke:#2dd9ff;fill:none;stroke-width:3}
    .card{fill:#09141e;stroke:#254154;stroke-width:2}.label{font-family:Arial,sans-serif;fill:#89a9bd;font-size:18px;letter-spacing:4px}
  </style>
</defs>
<rect width="1600" height="900" fill="url(#bg)"/>
<path d="M0 150 H1600 M0 700 H1600" stroke="#183243" opacity=".55"/>
<text x="65" y="70" class="t" font-size="34" font-weight="700">DoingLio · CAPITÁN RODOLFO</text>
<text x="66" y="105" class="s" font-size="17">MAPA VIVO DE LA ESTACIÓN · COMBUSTIBLE → DESPACHO → VENTA → COBRO</text>
<circle cx="1510" cy="68" r="9" fill="#34f5a5" filter="url(#glow)"><animate attributeName="opacity" values="1;.25;1" dur="1.4s" repeatCount="indefinite"/></circle><text x="1530" y="75" class="t" font-size="16">EN VIVO</text>
<path d="M245 425 H1370" stroke="#ff7138" stroke-width="5" opacity=".22"/>
<path d="M245 425 H1370" stroke="#ff7138" stroke-width="2" stroke-dasharray="12 16" filter="url(#glow)"/>
<circle cx="470" cy="425" r="7" fill="#ff7138"><animate attributeName="cx" values="245;1370;245" dur="7s" repeatCount="indefinite"/></circle>
<circle cx="780" cy="425" r="7" fill="#ff7138"><animate attributeName="cx" values="245;1370;245" dur="7s" begin="2.3s" repeatCount="indefinite"/></circle>
<circle cx="1085" cy="425" r="7" fill="#ff7138"><animate attributeName="cx" values="245;1370;245" dur="7s" begin="4.6s" repeatCount="indefinite"/></circle>
<g transform="translate(70 280)"><text x="0" y="-35" class="label">INGRESO</text><path d="M20 85 H180 Q200 85 200 105 V165 H20 Q0 165 0 145 V105 Q0 85 20 85Z" class="c"/><path d="M200 115 H260 L300 150 V165 H200Z" class="o"/><circle cx="60" cy="175" r="22" class="c"/><circle cx="245" cy="175" r="22" class="o"/><text x="0" y="235" class="t" font-size="23" font-weight="700">CAMIÓN</text><text x="0" y="265" class="s" font-size="16">Factura detectada · descarga activa</text></g>
<g transform="translate(430 245)"><text x="0" y="-5" class="label">TANQUES</text><g transform="translate(0 40)"><rect width="85" height="250" rx="38" class="card"/><rect x="8" y="130" width="69" height="112" rx="28" fill="#f5ca37" opacity=".6"/><text x="14" y="280" class="t" font-size="15">SÚPER</text></g><g transform="translate(105 40)"><rect width="85" height="250" rx="38" class="card"/><rect x="8" y="90" width="69" height="152" rx="28" fill="#2dd9ff" opacity=".45"/><text x="12" y="280" class="t" font-size="15">INFINIA</text></g><g transform="translate(210 40)"><rect width="85" height="250" rx="38" class="card"/><rect x="8" y="155" width="69" height="87" rx="28" fill="#ff633e" opacity=".55"/><text x="15" y="280" class="t" font-size="15">DIESEL</text></g><text x="0" y="355" class="s" font-size="16">Nivel, litros y alarmas en tiempo real</text></g>
<g transform="translate(810 245)"><text x="0" y="-5" class="label">SURTIDOR 01</text><path d="M30 40 H170 Q190 40 190 60 V285 Q190 305 170 305 H30 Q10 305 10 285 V60 Q10 40 30 40Z" class="card"/><rect x="34" y="70" width="132" height="72" rx="10" fill="#03111b" stroke="#2dd9ff"/><text x="56" y="101" fill="#34f5a5" font-family="Arial" font-size="20">38.40 L</text><text x="66" y="128" fill="#34f5a5" font-family="Arial" font-size="17">$ 48.920</text><path d="M190 115 C250 115 245 200 245 225" class="o"/><path d="M245 225 h-35" class="o"/><text x="18" y="350" class="t" font-size="21" font-weight="700">TOCÁ EL SURTIDOR</text><text x="18" y="380" class="s" font-size="16">→ abre sus últimas 10 ventas → elegís una → COBRO</text></g>
<g transform="translate(1090 330)"><text x="0" y="-55" class="label">DESPACHO</text><path d="M30 95 H260 Q290 95 300 130 L310 165 H5 L15 125 Q20 95 30 95Z" fill="#0b2632" stroke="#34f5a5" stroke-width="3"/><path d="M80 95 L120 45 H220 L260 95" class="c"/><circle cx="70" cy="170" r="25" fill="#050b12" stroke="#34f5a5" stroke-width="4"/><circle cx="250" cy="170" r="25" fill="#050b12" stroke="#34f5a5" stroke-width="4"/><text x="20" y="230" class="t" font-size="21" font-weight="700">AUTO · CARGA FINALIZADA</text></g>
<g transform="translate(70 735)"><rect width="1460" height="105" rx="24" class="card"/><text x="28" y="35" class="label">VENTA SELECCIONADA → FORMA DE PAGO</text><g transform="translate(35 55)" class="t" font-family="Arial" font-size="17"><text x="0">EFECTIVO</text><text x="210">YPF APP</text><text x="390">MERCADO PAGO</text><text x="650">CLOVER</text><text x="830">CUENTA CORRIENTE</text></g><circle cx="1380" cy="53" r="26" fill="none" stroke="#ff7138" stroke-width="3" filter="url(#glow)"/><text x="1371" y="61" fill="#ff7138" font-family="Arial" font-size="24">$</text></g>
<g transform="translate(1130 170)"><rect width="400" height="70" rx="18" class="card"/><text x="22" y="29" class="s" font-size="15">ESTADO DEL CIRCUITO</text><text x="22" y="53" class="t" font-size="19" font-weight="700">DESPACHO TERMINADO · PAGO PENDIENTE</text></g>
<g id="connections" opacity=".9"><path d="M515 585 C610 640 735 640 840 590" stroke="#2dd9ff" stroke-width="2" fill="none" stroke-dasharray="7 9"><animate attributeName="stroke-dashoffset" values="32;0" dur="1.5s" repeatCount="indefinite"/></path><path d="M620 585 C700 610 775 610 855 585" stroke="#ff7138" stroke-width="2" fill="none" stroke-dasharray="7 9"><animate attributeName="stroke-dashoffset" values="32;0" dur="1.2s" repeatCount="indefinite"/></path></g>
<g id="sales-panel" transform="translate(1030 545)"><rect width="500" height="165" rx="20" fill="#07131d" stroke="#2dd9ff" stroke-width="2"/><text x="20" y="30" class="label">ÚLTIMAS 10 VENTAS · SURTIDOR 01</text><text x="20" y="62" class="t" font-size="16">#10482 · 38,40 L · $48.920 · PENDIENTE</text><text x="20" y="88" class="s" font-size="15">#10481 · 22,10 L · COBRADA</text><text x="20" y="112" class="s" font-size="15">#10480 · 41,70 L · COBRADA</text><text x="20" y="138" fill="#ff7138" font-family="Arial" font-size="15">TOCÁ UNA VENTA → COBRO</text></g>
<g id="click-hints"><circle cx="205" cy="425" r="48" fill="none" stroke="#2dd9ff" opacity=".35"><animate attributeName="r" values="42;58;42" dur="2s" repeatCount="indefinite"/><animate attributeName="opacity" values=".6;.08;.6" dur="2s" repeatCount="indefinite"/></circle><circle cx="580" cy="425" r="48" fill="none" stroke="#ff7138" opacity=".35"><animate attributeName="r" values="42;58;42" dur="2s" begin=".5s" repeatCount="indefinite"/><animate attributeName="opacity" values=".6;.08;.6" dur="2s" begin=".5s" repeatCount="indefinite"/></circle><circle cx="910" cy="425" r="48" fill="none" stroke="#34f5a5" opacity=".35"><animate attributeName="r" values="42;58;42" dur="2s" begin="1s" repeatCount="indefinite"/><animate attributeName="opacity" values=".6;.08;.6" dur="2s" begin="1s" repeatCount="indefinite"/></circle></g>
</svg>